<?xml version="1.0" encoding="UTF-8" standalone="no"?>
<!DOCTYPE svg PUBLIC "-//W3C//DTD SVG 1.1//EN"
 "http://www.w3.org/Graphics/SVG/1.1/DTD/svg11.dtd">
<!-- Generated by graphviz version 2.43.0 (0)
 -->
<!-- Title: Call graph: double.ll Pages: 1 -->
<svg width="242pt" height="141pt"
 viewBox="0.00 0.00 241.50 141.00" xmlns="http://www.w3.org/2000/svg" xmlns:xlink="http://www.w3.org/1999/xlink">
<g id="graph0" class="graph" transform="scale(1 1) rotate(0) translate(4 137)">
<title>Call graph: double.ll</title>
<polygon fill="white" stroke="transparent" points="-4,4 -4,-137 237.5,-137 237.5,4 -4,4"/>
<text text-anchor="middle" x="116.75" y="-7.8" font-family="Times,serif" font-size="14.00">Call graph: double.ll</text>
<!-- Node0x62e6107de290 -->
<g id="node1" class="node">
<title>Node0x62e6107de290</title>
<polygon fill="none" stroke="black" points="0,-23.5 0,-59.5 54,-59.5 54,-23.5 0,-23.5"/>
<text text-anchor="middle" x="27" y="-37.8" font-family="Times,serif" font-size="14.00">init</text>
</g>
<!-- Node0x62e6107de340 -->
<g id="node2" class="node">
<title>Node0x62e6107de340</title>
<polygon fill="none" stroke="black" points="72,-23.5 72,-59.5 152,-59.5 152,-23.5 72,-23.5"/>
<text text-anchor="middle" x="112" y="-37.8" font-family="Times,serif" font-size="14.00">double_1</text>
</g>
<!-- Node0x62e6107de3c0 -->
<g id="node3" class="node">
<title>Node0x62e6107de3c0</title>
<polygon fill="none" stroke="black" points="85,-96.5 85,-132.5 139,-132.5 139,-96.5 85,-96.5"/>
<text text-anchor="middle" x="112" y="-110.8" font-family="Times,serif" font-size="14.00">main</text>
</g>
<!-- Node0x62e6107de3c0&#45;&gt;Node0x62e6107de290 -->
<g id="edge2" class="edge">
<title>Node0x62e6107de3c0&#45;&gt;Node0x62e6107de290</title>
<path fill="none" stroke="black" d="M91.42,-96.31C80.57,-87.24 67.08,-75.98 55.25,-66.1"/>
<polygon fill="black" stroke="black" points="57.31,-63.25 47.39,-59.53 52.82,-68.63 57.31,-63.25"/>
</g>
<!-- Node0x62e6107de3c0&#45;&gt;Node0x62e6107de340 -->
<g id="edge3" class="edge">
<title>Node0x62e6107de3c0&#45;&gt;Node0x62e6107de340</title>
<path fill="none" stroke="black" d="M112,-96.31C112,-88.29 112,-78.55 112,-69.57"/>
<polygon fill="black" stroke="black" points="115.5,-69.53 112,-59.53 108.5,-69.53 115.5,-69.53"/>
</g>
<!-- Node0x62e6107de440 -->
<g id="node4" class="node">
<title>Node0x62e6107de440</title>
<polygon fill="none" stroke="black" points="170.5,-23.5 170.5,-59.5 233.5,-59.5 233.5,-23.5 170.5,-23.5"/>
<text text-anchor="middle" x="202" y="-37.8" font-family="Times,serif" font-size="14.00">malloc</text>
</g>
<!-- Node0x62e6107de3c0&#45;&gt;Node0x62e6107de440 -->
<g id="edge1" class="edge">
<title>Node0x62e6107de3c0&#45;&gt;Node0x62e6107de440</title>
<path fill="none" stroke="black" d="M133.79,-96.31C145.39,-87.16 159.84,-75.76 172.44,-65.82"/>
<polygon fill="black" stroke="black" points="174.73,-68.47 180.41,-59.53 170.4,-62.97 174.73,-68.47"/>
</g>
</g>
</svg>
